<svg viewBox="0 0 520 120" xmlns="http://www.w3.org/2000/svg">
  <defs>
    <linearGradient id="fw" x1="0%" y1="0%" x2="100%" y2="100%">
      <stop offset="0%" stop-color="#FFC400"/><stop offset="45%" stop-color="#FF6B00"/><stop offset="100%" stop-color="#E11D2E"/>
    </linearGradient>
    <linearGradient id="bw" x1="0%" y1="0%" x2="100%" y2="100%">
      <stop offset="0%" stop-color="#FF5A00"/><stop offset="100%" stop-color="#D9042B"/>
    </linearGradient>
  </defs>
  <g transform="translate(58,62)">
    <line x1="-46" y1="30" x2="-20" y2="13" stroke="#FF6B00" stroke-width="5" stroke-linecap="round" opacity=".9"/>
    <line x1="-38" y1="44" x2="-16" y2="30" stroke="#E11D2E" stroke-width="4" stroke-linecap="round" opacity=".65"/>
    <g transform="rotate(45) scale(0.72)">
      <path d="M0,16 C10,28 8,44 0,60 C-8,44 -10,28 0,16 Z" fill="url(#fw)"/>
      <path d="M0,-46 C16,-28 19,-6 13,16 L-13,16 C-19,-6 -16,-28 0,-46 Z" fill="url(#bw)"/>
      <path d="M0,-46 C9,-36 13,-27 15,-18 L-15,-18 C-13,-27 -9,-36 0,-46 Z" fill="#FFFFFF"/>
      <circle cx="0" cy="-4" r="9" fill="#FFFFFF"/>
      <path d="M-13,0 L-30,24 L-13,19 Z" fill="#8E0E22"/>
      <path d="M13,0 L30,24 L13,19 Z" fill="#8E0E22"/>
    </g>
  </g>
  <text x="118" y="80" font-family="Poppins, 'Segoe UI', Arial, sans-serif" font-weight="900" font-style="italic" font-size="54">
    <tspan fill="#FFFFFF">Posta</tspan><tspan fill="url(#fw)">Rocket</tspan>
  </text>
</svg>
