<svg viewBox="0 0 64 64" xmlns="http://www.w3.org/2000/svg">
  <defs>
    <linearGradient id="fireF" x1="0%" y1="0%" x2="100%" y2="100%">
      <stop offset="0%" stop-color="#FFC400"/>
      <stop offset="50%" stop-color="#FF6B00"/>
      <stop offset="100%" stop-color="#E11D2E"/>
    </linearGradient>
    <linearGradient id="bodyF" x1="0%" y1="0%" x2="100%" y2="100%">
      <stop offset="0%" stop-color="#FF5A00"/>
      <stop offset="100%" stop-color="#D9042B"/>
    </linearGradient>
  </defs>

  <rect width="64" height="64" rx="14" fill="#12081C"/>

  <!-- foguete 45°, formas grossas para legibilidade em 16px -->
  <g transform="translate(33,31) rotate(45) scale(0.42)">
    <path d="M0,18 C13,32 10,50 0,68 C-10,50 -13,32 0,18 Z" fill="url(#fireF)"/>
    <path d="M0,-50 C19,-30 22,-6 15,18 L-15,18 C-22,-6 -19,-30 0,-50 Z" fill="url(#bodyF)"/>
    <path d="M0,-50 C11,-39 15,-29 17,-20 L-17,-20 C-15,-29 -11,-39 0,-50 Z" fill="#FFFFFF"/>
    <circle cx="0" cy="-4" r="11" fill="#FFFFFF"/>
    <path d="M-15,2 L-34,28 L-15,22 Z" fill="#8E0E22"/>
    <path d="M15,2 L34,28 L15,22 Z" fill="#8E0E22"/>
  </g>
</svg>
